<?xml version="1.0" standalone="no"?>
<!DOCTYPE svg PUBLIC "-//W3C//DTD SVG 20010904//EN"
 "http://www.w3.org/TR/2001/REC-SVG-20010904/DTD/svg10.dtd">
<svg version="1.0" xmlns="http://www.w3.org/2000/svg"
 width="218.000000pt" height="218.000000pt" viewBox="0 0 218.000000 218.000000"
 preserveAspectRatio="xMidYMid meet">
<metadata>
Created by potrace 1.14, written by Peter Selinger 2001-2017
</metadata>
<g transform="translate(0.000000,218.000000) scale(0.100000,-0.100000)"
fill="#000000" stroke="none">
<path d="M1151 2160 c-4 -3 -14 -21 -23 -40 -9 -19 -34 -74 -57 -121 l-40 -85
-82 -13 c-400 -61 -712 -353 -795 -745 -17 -81 -24 -240 -13 -300 4 -23 9 -57
12 -76 8 -64 39 -154 83 -248 40 -84 46 -92 64 -82 21 11 28 25 8 15 -7 -4 -6
-1 3 7 9 7 15 21 13 31 -1 9 2 15 7 11 5 -3 9 0 9 6 0 6 4 9 9 5 5 -3 13 0 17
6 4 7 3 9 -4 5 -6 -3 -13 -2 -17 4 -3 5 -1 10 5 10 7 0 10 7 7 14 -4 11 -1 13
10 9 12 -5 15 -2 10 10 -3 9 -2 17 3 17 6 0 10 5 10 11 0 5 -5 7 -11 3 -13 -8
21 48 36 58 5 4 7 8 2 8 -4 0 -1 10 8 23 8 13 12 27 9 30 -4 4 1 9 10 13 9 3
13 10 10 15 -3 5 0 9 7 9 7 0 9 3 6 7 -4 3 1 12 11 20 9 8 11 12 5 8 -7 -3
-13 -2 -13 4 0 5 6 12 13 14 7 3 5 6 -5 6 -10 1 -18 6 -18 12 0 5 6 7 13 3 9
-6 9 -4 0 7 -7 7 -13 19 -13 27 0 8 5 10 13 6 9 -6 9 -5 0 8 -7 8 -10 18 -6
21 3 4 1 7 -7 7 -10 0 -10 3 0 15 10 12 10 15 0 15 -9 0 -9 4 1 17 11 13 11
17 2 20 -7 3 -13 9 -13 14 0 6 6 7 13 3 9 -5 9 -4 1 5 -12 13 -7 54 5 46 4 -2
8 2 8 10 0 8 -4 12 -9 9 -4 -3 -8 -1 -8 5 0 5 9 13 21 16 19 7 20 7 2 21 -12
9 -14 13 -4 14 8 0 11 7 8 20 -4 18 -2 20 16 14 21 -6 21 -5 3 8 -17 13 -17
15 -2 21 9 4 16 17 16 32 0 16 6 25 15 25 8 0 15 5 15 11 0 5 -4 7 -10 4 -6
-3 -7 1 -4 9 3 9 11 14 16 13 6 -1 13 4 16 12 3 9 0 11 -9 7 -8 -4 -6 -1 3 7
10 8 14 18 10 22 -4 5 -1 5 6 1 7 -5 12 -1 12 10 0 13 3 14 14 5 11 -9 12 -6
8 15 -3 17 -1 25 6 21 5 -4 13 0 16 9 4 10 12 14 22 10 15 -6 15 -4 3 11 -9
11 -10 14 -1 9 6 -4 12 -2 12 3 0 6 7 11 15 11 8 0 15 7 15 15 0 16 38 41 59
36 8 -1 10 2 5 10 -5 9 -2 10 9 6 11 -4 17 -1 17 8 0 9 6 12 17 8 12 -5 14 -3
8 7 -5 9 -4 11 4 6 6 -4 18 -2 26 4 14 11 -32 -91 -155 -345 -26 -55 -61 -129
-78 -165 -16 -36 -53 -113 -81 -172 -29 -59 -50 -109 -49 -112 2 -2 -4 -12
-12 -22 -9 -11 -21 -30 -27 -44 -6 -14 -27 -60 -47 -103 -19 -42 -35 -79 -33
-81 1 -2 -7 -14 -18 -26 -11 -12 -20 -25 -20 -29 0 -3 -3 -5 -7 -4 -4 2 -5 -3
-2 -10 4 -11 -21 -68 -151 -342 -12 -26 -12 -30 1 -33 8 -2 12 -7 9 -12 -6
-10 15 -8 32 3 8 5 13 3 13 -4 0 -8 4 -8 15 1 10 9 15 9 15 1 0 -6 5 -11 11
-11 5 0 7 6 3 13 -6 9 -4 9 8 -1 13 -10 17 -10 22 0 5 10 7 10 12 1 3 -7 10
-13 15 -13 6 0 8 3 6 8 -3 4 6 8 20 9 19 1 22 -1 12 -8 -11 -7 -9 -8 6 -6 11
1 26 6 33 10 7 5 12 3 12 -5 0 -9 3 -9 10 2 9 13 10 13 10 0 0 -13 1 -13 10 0
9 13 10 13 10 0 0 -13 1 -13 10 0 6 10 10 11 10 3 0 -7 5 -13 11 -13 5 0 7 5
4 10 -8 13 17 8 27 -5 4 -5 15 -1 28 10 21 19 21 19 14 -1 -4 -14 -4 -16 4 -5
6 8 8 21 4 29 -3 9 -1 13 5 9 6 -4 14 0 17 9 3 8 2 13 -3 9 -5 -3 -4 8 2 25 6
16 15 30 20 30 4 0 5 -5 1 -12 -4 -7 -3 -8 5 -4 8 5 9 12 2 20 -7 8 -6 17 1
26 8 12 9 12 4 -3 -4 -11 -2 -16 5 -11 6 3 8 15 6 26 -4 14 -2 18 9 14 11 -4
12 -2 4 13 -7 14 -6 22 5 31 8 7 13 15 12 18 -3 12 29 52 36 45 4 -3 7 -1 7 5
0 7 -5 12 -11 12 -5 0 -7 5 -4 11 4 6 14 8 22 4 14 -5 14 -3 2 12 -12 15 -12
16 5 10 16 -6 17 -5 6 8 -9 11 -9 15 -1 15 7 0 9 5 6 10 -3 6 -1 10 5 10 7 0
10 6 7 13 -5 12 10 31 28 36 6 1 12 5 15 8 3 4 0 3 -7 -1 -6 -3 -14 -2 -18 4
-6 9 8 14 28 11 5 -1 6 3 2 9 -3 6 -12 7 -18 3 -7 -4 -6 0 2 10 7 9 17 14 22
11 5 -3 6 2 3 11 -4 9 1 22 12 31 11 9 13 13 7 9 -7 -3 -13 -1 -13 4 0 6 5 11
11 11 5 0 7 6 3 13 -5 7 0 6 11 -3 17 -14 18 -14 7 6 -15 28 4 50 27 31 12 -9
13 -9 7 1 -8 14 19 12 43 -2 9 -6 12 -5 8 1 -4 6 10 10 37 10 36 0 43 -3 39
-16 -3 -13 -2 -12 7 2 12 19 35 24 24 5 -6 -10 -5 -10 7 -1 12 10 18 10 29 0
10 -9 11 -9 6 1 -4 6 -4 12 1 12 24 -1 31 -21 32 -100 1 -47 6 -87 11 -88 6
-2 7 -9 4 -15 -5 -9 -4 -9 6 0 8 8 20 9 37 2 16 -6 22 -5 18 1 -3 6 -1 10 4
10 6 0 11 -6 11 -12 0 -9 4 -8 10 2 5 8 10 10 10 4 0 -7 7 -14 14 -17 11 -4
13 -1 9 10 -5 13 -3 13 14 5 11 -6 25 -7 33 -2 7 4 24 4 37 -1 16 -6 22 -5 18
1 -3 6 -1 10 4 10 6 0 11 -6 11 -12 0 -9 4 -8 10 2 5 8 10 10 10 4 0 -7 7 -14
14 -17 10 -4 13 -1 10 7 -3 8 2 13 13 13 38 0 45 3 39 18 -3 8 0 15 7 15 8 0
6 4 -3 10 -11 7 -11 10 -2 10 7 0 10 5 6 12 -10 16 -12 108 -2 102 12 -8 9 11
-4 24 -9 9 -9 12 0 12 8 0 9 7 1 27 -7 19 -7 29 0 31 6 2 8 9 4 15 -3 6 -7 61
-7 124 -1 94 2 113 14 114 10 0 8 3 -5 9 -11 5 -14 9 -7 9 7 1 10 6 6 13 -11
18 -11 88 1 88 5 0 3 5 -5 10 -12 8 -12 10 -1 10 11 0 11 3 1 15 -8 10 -9 15
-1 15 7 0 8 8 0 27 -7 19 -7 29 0 31 6 2 9 8 6 13 -3 4 -7 24 -9 44 -2 26 2
35 13 36 12 0 10 3 -4 9 -11 5 -14 9 -7 9 7 1 10 6 6 13 -10 16 -12 78 -2 78
5 0 4 9 -2 20 -9 16 -8 20 7 20 15 0 15 2 -3 15 -10 8 -17 15 -14 15 3 1 12 3
21 5 22 4 137 -117 176 -185 116 -203 112 -444 -8 -646 -34 -57 -115 -145
-158 -174 -13 -8 -33 -22 -45 -31 -36 -28 -98 -56 -169 -77 -56 -17 -92 -20
-185 -18 -110 2 -166 13 -237 46 -59 28 -76 30 -82 12 -3 -9 -32 -73 -65 -141
-57 -121 -61 -140 -25 -141 5 0 6 -4 3 -8 -2 -4 3 -8 12 -9 31 -3 72 -22 72
-35 0 -10 2 -10 9 1 6 9 11 10 15 2 4 -6 18 -11 32 -11 14 0 23 -4 20 -9 -3
-4 6 -7 19 -5 14 1 25 -2 25 -7 0 -4 7 -6 16 -2 9 3 20 0 25 -8 7 -11 9 -11 9
-1 0 8 5 10 13 5 6 -4 28 -8 47 -9 19 -1 37 -3 40 -4 5 -2 116 0 190 4 19 1
41 5 49 10 11 7 12 6 6 -5 -8 -12 -6 -12 8 0 10 8 20 11 24 8 3 -4 12 1 20 11
14 16 14 16 9 -2 -5 -15 -4 -17 7 -8 8 7 18 8 22 4 5 -4 5 -1 0 7 -6 11 -3 13
13 9 12 -4 22 -2 22 4 0 6 7 7 15 4 9 -3 18 1 22 10 3 8 12 13 20 10 7 -3 16
1 19 9 3 7 12 11 20 8 8 -3 14 0 14 7 0 6 5 10 12 8 6 -2 20 4 30 14 10 10 25
18 33 18 8 0 15 5 15 10 0 6 7 10 15 10 7 0 19 8 24 18 6 9 11 14 11 10 0 -5
8 0 18 10 23 21 50 42 78 62 12 8 23 20 25 25 2 6 7 9 11 8 4 -2 16 9 25 24
10 15 26 36 36 46 10 10 15 23 11 29 -4 7 -3 8 4 4 14 -9 46 39 36 55 -4 8 -3
9 5 5 6 -4 14 0 18 11 4 10 14 24 22 31 9 8 10 10 3 7 -11 -6 -11 -3 0 14 7
12 17 21 22 21 4 0 3 6 -3 14 -9 11 -9 16 0 22 8 5 9 3 4 -6 -6 -9 -4 -11 4
-6 7 5 10 14 7 22 -3 8 -1 14 4 14 5 0 7 9 5 20 -2 11 0 18 6 15 5 -4 9 2 9
12 0 11 6 25 13 32 10 11 9 12 -3 6 -10 -5 -8 -1 4 13 11 12 16 25 13 29 -4 3
-7 0 -7 -7 0 -7 -3 -11 -6 -8 -3 4 2 17 11 31 12 19 13 27 4 33 -9 5 -7 10 5
20 12 8 14 14 6 19 -7 4 -7 11 -2 18 14 19 23 49 12 42 -6 -3 -10 -2 -10 4 0
5 6 12 13 14 8 4 8 8 2 14 -13 11 -18 36 -5 28 14 -9 13 8 -2 24 -11 11 -10
12 2 6 13 -8 13 -7 1 8 -11 14 -11 17 0 17 9 0 10 3 4 8 -5 4 -10 14 -10 22 0
8 5 18 10 22 6 5 5 8 -4 8 -8 0 -11 7 -8 20 3 11 1 20 -5 20 -5 0 -7 14 -4 30
2 17 0 30 -4 30 -5 0 -7 9 -5 20 2 11 0 20 -6 20 -5 0 -9 5 -9 11 0 5 4 7 10
4 6 -3 7 1 4 9 -3 9 -10 16 -16 16 -5 0 -8 8 -6 18 1 10 -5 31 -16 46 -10 16
-13 25 -7 22 5 -4 -1 12 -14 36 -13 23 -22 45 -19 50 3 4 1 8 -5 8 -5 0 -16
12 -24 28 -36 68 -44 81 -50 76 -3 -3 -8 4 -12 15 -3 12 -11 21 -17 21 -5 0
-7 8 -4 17 4 10 4 14 1 11 -4 -4 -30 17 -59 45 -67 66 -95 90 -148 124 -24 15
-45 30 -48 33 -3 3 -31 18 -62 33 -32 16 -58 34 -59 40 0 7 -2 24 -3 40 -1 18
3 27 14 28 10 0 9 3 -5 9 -11 5 -14 9 -7 9 7 1 10 6 6 13 -11 18 -10 148 1
148 6 0 3 5 -5 10 -10 6 -11 10 -3 10 9 0 10 6 2 23 -10 21 -14 22 -150 22
-78 0 -144 -2 -148 -5z m-56 -1066 l0 -109 -42 -1 c-54 -1 -71 9 -54 30 7 8
10 20 6 26 -4 6 -1 9 7 8 7 -2 12 5 12 15 -1 10 5 17 15 17 14 0 14 2 1 10
-13 9 -13 10 0 11 8 1 19 1 23 0 5 -1 6 3 2 9 -3 6 -11 7 -17 4 -6 -4 -6 2 1
15 7 11 17 21 24 22 9 0 9 2 0 6 -10 3 -9 8 2 19 8 8 12 22 9 32 -4 11 -3 13
3 5 4 -6 8 -60 8 -119z"/>
<path d="M736 1482 c-3 -5 1 -9 9 -9 8 0 12 4 9 9 -3 4 -7 8 -9 8 -2 0 -6 -4
-9 -8z"/>
<path d="M396 633 c-6 -14 -5 -15 5 -6 7 7 10 15 7 18 -3 3 -9 -2 -12 -12z"/>
<path d="M670 285 c-7 -8 -9 -15 -5 -15 5 0 0 -9 -10 -20 -10 -11 -13 -20 -8
-20 9 0 23 21 27 40 1 3 5 11 9 18 11 17 2 15 -13 -3z"/>
</g>
</svg>
